<svg class="small" width="126" height="87" viewBox="0 0 126 87" fill="none" xmlns="http://www.w3.org/2000/svg">
                        <path d="M7.17594 59.3895C13.9002 63.1673 22.4975 60.9272 26.3784 54.3863C30.2594 47.8453 27.9544 39.4804 21.2301 35.7027C14.5058 31.925 5.90856 34.165 2.02761 40.706C-1.85334 47.2469 0.451648 55.6118 7.17594 59.3895Z" fill="#CA4590"></path>
                        <path d="M75.1214 32.0999L50.6797 18.6529L37.4149 41.4824L61.8566 54.9294L75.1214 32.0999Z" fill="#E5BD54"></path>
                        <path d="M56.0079 37.1563C62.7322 40.934 71.3294 38.694 75.2104 32.153C79.0913 25.6121 76.7863 17.2471 70.0621 13.4694C63.3378 9.69171 54.7405 11.9318 50.8596 18.4727C46.9786 25.0137 49.2836 33.3786 56.0079 37.1563Z" fill="#E5BD54"></path>
                        <path d="M43.3165 58.7494C50.0408 62.5271 58.6381 60.2871 62.519 53.7461C66.4 47.2052 64.095 38.8403 57.3707 35.0626C50.6464 31.2849 42.0492 33.5249 38.1682 40.0658C34.2873 46.6068 36.5922 54.9717 43.3165 58.7494Z" fill="#E5BD54"></path>
                        <path fill-rule="evenodd" clip-rule="evenodd" d="M124.124 21.1645L99.773 7.48459L80.374 40.1763C80.331 40.2466 80.288 40.3169 80.245 40.3891C80.202 40.4612 80.159 40.5316 80.12 40.6037C80.108 40.6208 80.101 40.6398 80.089 40.6569C76.429 47.1569 78.761 55.3478 85.394 59.0726C92.026 62.7993 100.483 60.6734 104.44 54.3364L104.597 54.069L124.124 21.1645Z" fill="#7986E9"></path>
                        <path d="M104.762 26.4282C111.486 30.2059 120.083 27.9658 123.964 21.4249C127.845 14.8839 125.54 6.51898 118.816 2.74127C112.092 -1.03644 103.495 1.20361 99.6136 7.74456C95.7327 14.2855 98.0376 22.6504 104.762 26.4282Z" fill="#7986E9"></path>
                        <path d="M0.980103 78.0836H3.2841L5.5521 83.872L7.8441 78.0836H10.1241V86.3462H8.6841V79.484H8.6601L6.0801 86.3462H5.02411L2.4441 79.484H2.4201V86.3462H0.980103V78.0836ZM33.8575 83.3119C33.8575 83.8098 33.7695 84.2611 33.5935 84.6656C33.4175 85.0624 33.1775 85.4009 32.8735 85.681C32.5695 85.961 32.2095 86.1789 31.7935 86.3345C31.3775 86.4823 30.9255 86.5562 30.4375 86.5562C29.9495 86.5562 29.4975 86.4823 29.0815 86.3345C28.6655 86.1789 28.3015 85.961 27.9895 85.681C27.6855 85.4009 27.4455 85.0624 27.2695 84.6656C27.1015 84.2611 27.0175 83.8098 27.0175 83.3119V78.0836H28.5295V83.2652C28.5295 83.4675 28.5615 83.6814 28.6255 83.9071C28.6895 84.1249 28.7935 84.3272 28.9375 84.5139C29.0895 84.7006 29.2855 84.8562 29.5255 84.9807C29.7735 85.0974 30.0775 85.1558 30.4375 85.1558C30.7975 85.1558 31.0975 85.0974 31.3375 84.9807C31.5855 84.8562 31.7815 84.7006 31.9255 84.5139C32.0775 84.3272 32.1855 84.1249 32.2495 83.9071C32.3135 83.6814 32.3455 83.4675 32.3455 83.2652V78.0836H33.8575V83.3119ZM54.878 79.8575C54.718 79.6318 54.502 79.4684 54.23 79.3673C53.966 79.2584 53.686 79.2039 53.39 79.2039C53.214 79.2039 53.042 79.2234 52.874 79.2623C52.714 79.3012 52.566 79.3634 52.43 79.449C52.302 79.5346 52.198 79.6474 52.118 79.7874C52.038 79.9197 51.998 80.0792 51.998 80.2659C51.998 80.546 52.098 80.76 52.298 80.9078C52.498 81.0556 52.746 81.184 53.042 81.2929C53.338 81.4018 53.662 81.5069 54.014 81.608C54.366 81.7092 54.69 81.8492 54.986 82.0281C55.282 82.2071 55.53 82.4444 55.73 82.74C55.93 83.0357 56.03 83.4286 56.03 83.9187C56.03 84.3622 55.946 84.7512 55.778 85.0858C55.61 85.4125 55.382 85.6849 55.094 85.9027C54.814 86.1205 54.486 86.2839 54.11 86.3929C53.734 86.5018 53.338 86.5562 52.922 86.5562C52.394 86.5562 51.886 86.4706 51.398 86.2995C50.9096 86.1283 50.4896 85.8404 50.1376 85.4359L51.278 84.3622C51.462 84.6345 51.702 84.8485 51.998 85.0041C52.302 85.1519 52.622 85.2258 52.958 85.2258C53.134 85.2258 53.31 85.2025 53.486 85.1558C53.662 85.1091 53.822 85.0391 53.966 84.9457C54.11 84.8524 54.226 84.7357 54.314 84.5956C54.402 84.4478 54.446 84.2805 54.446 84.0938C54.446 83.7904 54.346 83.557 54.146 83.3936C53.946 83.2302 53.698 83.094 53.402 82.9851C53.106 82.8684 52.782 82.7595 52.43 82.6583C52.078 82.5572 51.754 82.421 51.458 82.2499C51.162 82.0709 50.9136 81.8375 50.7136 81.5497C50.5136 81.254 50.4136 80.8611 50.4136 80.371C50.4136 79.943 50.5016 79.5735 50.6776 79.2623C50.8616 78.9511 51.098 78.6943 51.386 78.492C51.682 78.282 52.018 78.1264 52.394 78.0252C52.77 77.9241 53.154 77.8735 53.546 77.8735C53.994 77.8735 54.426 77.9396 54.842 78.0719C55.266 78.2042 55.646 78.422 55.982 78.7254L54.878 79.8575ZM72.604 78.0836H78.232V79.414H74.116V81.4446H78.016V82.775H74.116V85.0158H78.448V86.3462H72.604V78.0836ZM99.104 79.8575C98.944 79.6318 98.728 79.4684 98.456 79.3673C98.192 79.2584 97.912 79.2039 97.616 79.2039C97.44 79.2039 97.268 79.2234 97.1 79.2623C96.94 79.3012 96.792 79.3634 96.656 79.449C96.528 79.5346 96.424 79.6474 96.344 79.7874C96.264 79.9197 96.224 80.0792 96.224 80.2659C96.224 80.546 96.324 80.76 96.524 80.9078C96.724 81.0556 96.972 81.184 97.268 81.2929C97.564 81.4018 97.888 81.5069 98.24 81.608C98.592 81.7092 98.916 81.8492 99.212 82.0281C99.508 82.2071 99.756 82.4444 99.956 82.74C100.156 83.0357 100.256 83.4286 100.256 83.9187C100.256 84.3622 100.172 84.7512 100.004 85.0858C99.836 85.4125 99.608 85.6849 99.32 85.9027C99.04 86.1205 98.712 86.2839 98.336 86.3929C97.96 86.5018 97.564 86.5562 97.148 86.5562C96.62 86.5562 96.112 86.4706 95.624 86.2995C95.136 86.1283 94.716 85.8404 94.364 85.4359L95.504 84.3622C95.688 84.6345 95.928 84.8485 96.224 85.0041C96.528 85.1519 96.848 85.2258 97.184 85.2258C97.36 85.2258 97.536 85.2025 97.712 85.1558C97.888 85.1091 98.048 85.0391 98.192 84.9457C98.336 84.8524 98.452 84.7357 98.54 84.5956C98.628 84.4478 98.672 84.2805 98.672 84.0938C98.672 83.7904 98.572 83.557 98.372 83.3936C98.172 83.2302 97.924 83.094 97.628 82.9851C97.332 82.8684 97.008 82.7595 96.656 82.6583C96.304 82.5572 95.98 82.421 95.684 82.2499C95.388 82.0709 95.14 81.8375 94.94 81.5497C94.74 81.254 94.64 80.8611 94.64 80.371C94.64 79.943 94.728 79.5735 94.904 79.2623C95.088 78.9511 95.324 78.6943 95.612 78.492C95.908 78.282 96.244 78.1264 96.62 78.0252C96.996 77.9241 97.38 77.8735 97.772 77.8735C98.22 77.8735 98.652 77.9396 99.068 78.0719C99.492 78.2042 99.872 78.422 100.208 78.7254L99.104 79.8575Z" fill="#464646"></path>
                    </svg>